# xmcd
#
# Track frame offsets:
#	150
#	10155
#	25202
#	39135
#	47910
#	60972
#	76857
#	83660
#	96295
#	111830
#	122085
#	138207
#	146557
#	156527
#	170647
#	181817
#	196917
#	208015
#	216877
#	225880
#
# Disc length: 3222 seconds
#
# Revision: 1
# Processed by: cddbd v1.5.2PL0 Copyright (c) Steve Scherf et al.
# Submitted via: audiograbber 1.83.01
#
DISCID=020c9414
DTITLE=Boxcar Willie - King Of The Road
DYEAR=1900
DGENRE=Country
TTITLE0=King Of The Road
TTITLE1=Wabash Cannonball
TTITLE2=You Are My Sunshine
TTITLE3=Don't Let The Stars Get In Your Eyes
TTITLE4=San Antonio Rose
TTITLE5=Your Cheatin' Heart
TTITLE6=I Saw The Light
TTITLE7=Peace In The Valley
TTITLE8=Kaw Liga
TTITLE9=Heaven
TTITLE10=Mule Train
TTITLE11=Hey Good Lookin'
TTITLE12=Move It On Over
TTITLE13=London Leaves
TTITLE14=Roll In My Sweet Baby's Arms
TTITLE15=Boxcar Blues
TTITLE16=Wreck Of The Old '97
TTITLE17=Hank And The Hobo
TTITLE18=Divorce Me C.O.D.
TTITLE19=Red River Valley
EXTD=
EXTT0=
EXTT1=
EXTT2=
EXTT3=
EXTT4=
EXTT5=
EXTT6=
EXTT7=
EXTT8=
EXTT9=
EXTT10=
EXTT11=
EXTT12=
EXTT13=
EXTT14=
EXTT15=
EXTT16=
EXTT17=
EXTT18=
EXTT19=
PLAYORDER=
